# xmcd
#
# Track frame offsets: 
#        150
#        22649
#        44316
#        61583
#        82790
#        100265
#        118816
#        139410
#        157880
#        177585
#        194216
#        210549
#        230596
#
# Disc length: 3333 seconds
#
# Revision: 0
# Processed by: cddbd v1.5.2PL0 Copyright (c) Steve Scherf et al.
# Submitted via: ExactAudioCopyFreeDBPlugin 1.0
#
DISCID=aa0d030d
DTITLE=林俊杰 - 醇经典 经典情歌精选
DYEAR=2015
DGENRE=Pop
TTITLE0=可惜没如果
TTITLE1=修炼爱情
TTITLE2=学不会
TTITLE3=手心的蔷薇 feat.邓紫棋
TTITLE4=零度的亲吻
TTITLE5=不存在的情人
TTITLE6=浪漫血液
TTITLE7=那些你很冒险的梦
TTITLE8=十秒的冲动
TTITLE9=Love U U
TTITLE10=故事细腻
TTITLE11=灵魂的共鸣
TTITLE12=生生
EXTD=
EXTT0=
EXTT1=
EXTT2=
EXTT3=
EXTT4=
EXTT5=
EXTT6=
EXTT7=
EXTT8=
EXTT9=
EXTT10=
EXTT11=
EXTT12=
PLAYORDER=
